<svg version="1.1" xmlns="http://www.w3.org/2000/svg" viewBox="-307.2 -1598.325 7367.8738794500105 2443.65"><desc>Created with Snap</desc><defs></defs><g><rect x="-307.2" y="-1598.325" width="7367.8738794500105" height="2443.65" style="" fill="#421e86"></rect><g transform="matrix(24.0764,0,0,24.0764,4622.9746,-1592.3805)"><g><path d="M74.265,60.41c0.964,2.929,1.401,5.966,1.261,9.015c2.584-0.989,5.013-2.49,7.095-4.572c0.244-0.244,0.41-0.527,0.637-0.78   c0.018-0.341,0.105-0.659,0.105-1.004c0-2.924-0.646-5.691-1.764-8.203C79.522,57.139,77.045,59.022,74.265,60.41z" style="" fill="#ffffff"></path><path d="M54.863,81.605c2.509,1.112,5.276,1.759,8.2,1.759c0.349,0,0.664-0.085,1.004-0.103c0.253-0.227,0.541-0.393,0.781-0.637   c2.08-2.085,3.585-4.516,4.572-7.104c-3.049,0.14-6.086-0.292-9.01-1.257C59.022,77.049,57.137,79.528,54.863,81.605z" style="" fill="#ffffff"></path><path d="M40.588,74.265c-2.925,0.965-5.965,1.396-9.013,1.257c0.988,2.588,2.49,5.023,4.573,7.104   c0.242,0.244,0.528,0.41,0.779,0.637c0.339,0.018,0.661,0.103,1.003,0.103c2.926,0,5.691-0.646,8.202-1.759   C43.861,79.528,41.976,77.049,40.588,74.265z" style="" fill="#ffffff"></path><path d="M26.731,60.41c-2.781-1.388-5.26-3.271-7.337-5.545c-1.112,2.512-1.758,5.279-1.758,8.203c0,0.345,0.085,0.663,0.1,1.004   c0.229,0.253,0.395,0.536,0.639,0.78c2.082,2.082,4.515,3.583,7.098,4.572C25.333,66.376,25.767,63.339,26.731,60.41z" style="" fill="#ffffff"></path><path d="M26.731,40.592c-0.964-2.929-1.398-5.966-1.259-9.016c-2.583,0.989-5.014,2.491-7.098,4.572   c-0.244,0.245-0.41,0.528-0.639,0.781c-0.015,0.341-0.1,0.659-0.1,1.004c0,2.924,0.646,5.69,1.76,8.205   C21.471,43.863,23.95,41.979,26.731,40.592z" style="" fill="#ffffff"></path><path d="M46.132,19.397c-2.511-1.114-5.275-1.76-8.202-1.76c-0.342,0-0.664,0.084-1.003,0.102   c-0.251,0.228-0.537,0.393-0.779,0.638c-2.083,2.08-3.585,4.515-4.573,7.103c3.048-0.14,6.088,0.293,9.013,1.257   C41.976,23.952,43.861,21.475,46.132,19.397z" style="" fill="#ffffff"></path><path d="M60.41,26.736c2.924-0.964,5.961-1.396,9.01-1.257c-0.99-2.588-2.492-5.017-4.572-7.103   c-0.24-0.245-0.528-0.41-0.781-0.638c-0.34-0.018-0.659-0.102-1.004-0.102c-2.924,0-5.691,0.646-8.2,1.76   C57.137,21.475,59.022,23.952,60.41,26.736z" style="" fill="#ffffff"></path><path d="M82.621,36.148c-2.082-2.081-4.511-3.583-7.095-4.572c0.14,3.05-0.297,6.087-1.261,9.016   c2.78,1.388,5.257,3.271,7.334,5.547c1.117-2.515,1.764-5.281,1.764-8.205c0-0.345-0.088-0.663-0.105-1.004   C83.031,36.677,82.865,36.394,82.621,36.148z" style="" fill="#ffffff"></path><path d="M58.228,63.068c0-0.166-0.048-0.319-0.052-0.484c-1.061-0.21-2.09-0.498-3.099-0.834c-0.462,0.921-0.89,1.851-1.469,2.719   c0.113,0.122,0.19,0.267,0.309,0.384c1.143,1.14,2.404,2.069,3.718,2.881C57.993,66.228,58.228,64.683,58.228,63.068z" style="" fill="#ffffff"></path><path d="M43.362,67.733c1.313-0.812,2.574-1.741,3.715-2.881c0.12-0.117,0.199-0.262,0.312-0.384   c-0.581-0.868-1.008-1.798-1.471-2.719c-1.008,0.336-2.038,0.624-3.1,0.834c-0.002,0.165-0.048,0.318-0.048,0.484   C42.771,64.683,43.006,66.228,43.362,67.733z" style="" fill="#ffffff"></path><path d="M36.148,53.922c-1.139,1.14-2.068,2.4-2.88,3.717c1.503,0.355,3.051,0.59,4.663,0.59c0.166,0,0.318-0.044,0.484-0.048   c0.209-1.06,0.495-2.094,0.833-3.102c-0.918-0.463-1.848-0.886-2.716-1.471C36.411,53.726,36.269,53.805,36.148,53.922z" style="" fill="#ffffff"></path><path d="M38.415,42.821c-0.166-0.006-0.319-0.05-0.484-0.05c-1.612,0-3.159,0.236-4.663,0.591c0.812,1.318,1.739,2.578,2.88,3.717   c0.12,0.118,0.262,0.196,0.384,0.314c0.868-0.583,1.797-1.008,2.716-1.471C38.91,44.916,38.625,43.881,38.415,42.821z" style="" fill="#ffffff"></path><path d="M42.771,37.934c0,0.166,0.046,0.318,0.048,0.484c1.062,0.21,2.092,0.498,3.1,0.834c0.462-0.921,0.89-1.851,1.471-2.719   c-0.113-0.123-0.192-0.267-0.312-0.385c-1.141-1.139-2.402-2.066-3.715-2.879C43.006,34.774,42.771,36.319,42.771,37.934z" style="" fill="#ffffff"></path><path d="M57.635,33.27c-1.314,0.812-2.575,1.74-3.718,2.879c-0.118,0.118-0.195,0.262-0.309,0.385   c0.579,0.868,1.007,1.798,1.469,2.719c1.008-0.336,2.038-0.624,3.099-0.834c0.004-0.166,0.052-0.318,0.052-0.484   C58.228,36.319,57.993,34.774,57.635,33.27z" style="" fill="#ffffff"></path><path d="M63.063,42.771c-0.166,0-0.314,0.044-0.48,0.05c-0.209,1.06-0.498,2.095-0.838,3.102c0.921,0.463,1.851,0.888,2.719,1.471   c0.122-0.118,0.266-0.196,0.384-0.314c1.139-1.139,2.067-2.398,2.883-3.717C66.226,43.008,64.678,42.771,63.063,42.771z" style="" fill="#ffffff"></path><path d="M48.074,49.493c-0.035,0.676-0.035,1.339,0,2.012c0.452,0.502,0.921,0.969,1.42,1.423c0.671,0.034,1.335,0.034,2.007,0   c0.5-0.454,0.972-0.926,1.423-1.423c0.035-0.673,0.033-1.336,0-2.008c-0.451-0.502-0.921-0.969-1.42-1.423   c-0.673-0.035-1.34-0.035-2.012,0C48.995,48.528,48.524,48.995,48.074,49.493z" style="" fill="#ffffff"></path><path d="M64.464,53.608c-0.868,0.585-1.798,1.008-2.719,1.471c0.34,1.008,0.628,2.042,0.838,3.102   c0.166,0.004,0.314,0.048,0.48,0.048c1.615,0,3.163-0.234,4.668-0.59c-0.816-1.316-1.745-2.577-2.883-3.717   C64.73,53.805,64.586,53.726,64.464,53.608z" style="" fill="#ffffff"></path><path d="M72.271,55.926c2.583-1.327,4.827-3.173,6.615-5.425c-1.788-2.252-4.031-4.098-6.615-5.425   c-1.091,1.929-2.357,3.784-3.998,5.425C69.914,52.142,71.179,53.996,72.271,55.926z" style="" fill="#ffffff"></path><path d="M62.138,31.245c0.585,2.133,0.925,4.367,0.925,6.688c2.322,0,4.555,0.341,6.689,0.93c0.868-2.745,1.143-5.603,0.82-8.436   C67.74,30.104,64.879,30.375,62.138,31.245z" style="" fill="#ffffff"></path><path d="M50.498,22.11c-2.253,1.794-4.099,4.033-5.424,6.616c1.927,1.096,3.782,2.361,5.424,4.002   c1.644-1.641,3.498-2.906,5.426-4.002C54.597,26.144,52.752,23.904,50.498,22.11z" style="" fill="#ffffff"></path><path d="M37.931,37.934c0-2.321,0.34-4.556,0.927-6.688c-2.74-0.87-5.601-1.141-8.432-0.817c-0.323,2.833-0.05,5.69,0.817,8.436   C33.377,38.274,35.612,37.934,37.931,37.934z" style="" fill="#ffffff"></path><path d="M22.108,50.501c1.794,2.252,4.034,4.098,6.618,5.425c1.091-1.93,2.356-3.784,3.999-5.425   c-1.643-1.641-2.908-3.496-4.001-5.425C26.143,46.403,23.902,48.249,22.108,50.501z" style="" fill="#ffffff"></path><path d="M38.858,69.757c-0.587-2.133-0.927-4.367-0.927-6.688c-2.319,0-4.553-0.341-6.688-0.93   c-0.868,2.745-1.14,5.604-0.817,8.436C33.257,70.896,36.118,70.627,38.858,69.757z" style="" fill="#ffffff"></path><path d="M50.498,78.891c2.255-1.793,4.1-4.032,5.426-6.616c-1.929-1.095-3.782-2.36-5.426-4c-1.642,1.64-3.497,2.905-5.424,4   C46.401,74.858,48.245,77.098,50.498,78.891z" style="" fill="#ffffff"></path><path d="M63.063,63.068c0,2.321-0.34,4.556-0.925,6.688c2.741,0.87,5.602,1.139,8.435,0.817c0.323-2.832,0.048-5.695-0.82-8.436   C67.618,62.728,65.385,63.068,63.063,63.068z" style="" fill="#ffffff"></path><path d="M87.425,44.026c-0.571,2.304-1.457,4.476-2.614,6.475c1.157,1.999,2.043,4.177,2.614,6.475   C88.844,52.771,88.844,48.231,87.425,44.026z" style="" fill="#ffffff"></path><path d="M81.233,29.05c-1.981-4.041-5.244-7.301-9.286-9.282c1.249,2.063,2.147,4.268,2.745,6.541   C76.966,26.907,79.165,27.802,81.233,29.05z" style="" fill="#ffffff"></path><path d="M56.971,13.576c-4.204-1.418-8.742-1.418-12.947,0c2.3,0.571,4.473,1.453,6.473,2.614   C52.5,15.029,54.671,14.147,56.971,13.576z" style="" fill="#ffffff"></path><path d="M29.047,19.768c-4.042,1.981-7.301,5.241-9.284,9.282c2.066-1.248,4.268-2.143,6.541-2.741   C26.904,24.035,27.798,21.831,29.047,19.768z" style="" fill="#ffffff"></path><path d="M13.571,56.973c0.574-2.3,1.458-4.473,2.616-6.472c-1.159-1.999-2.04-4.171-2.616-6.472   C12.158,48.231,12.158,52.771,13.571,56.973z" style="" fill="#ffffff"></path><path d="M19.765,71.952c1.981,4.041,5.24,7.297,9.279,9.282c-1.248-2.068-2.141-4.269-2.741-6.542   C24.031,74.095,21.829,73.2,19.765,71.952z" style="" fill="#ffffff"></path><path d="M44.024,87.426c4.205,1.418,8.746,1.418,12.947,0c-2.3-0.572-4.472-1.453-6.474-2.614   C48.498,85.973,46.324,86.854,44.024,87.426z" style="" fill="#ffffff"></path><path d="M71.952,81.234c4.037-1.985,7.3-5.241,9.281-9.282c-2.068,1.248-4.267,2.143-6.541,2.74   C74.095,76.966,73.2,79.166,71.952,81.234z" style="" fill="#ffffff"></path></g><desc>Created with Snap</desc><defs></defs></g><g><g transform="matrix(1,0,0,-1,0,0)"><path d="M736 0L660 -7Q605 338 541 584Q508 506 468 364Q429 223 414 181Q412 181 407 180Q403 180 400 180Q386 180 354 183Q322 186 313 186Q312 215 262 379Q212 544 202 590Q184 428 62 0L0 6Q14 115 69 349Q124 583 134 711Q152 713 163 713Q173 713 237 705Q251 703 277 614Q304 526 331 420Q358 314 365 295Q393 364 432 519Q472 674 488 716Q504 715 589 707Q615 606 639 489Q664 372 692 223Q721 74 736 0ZM777 213Q777 253 785 302Q794 351 811 405Q828 459 862 495Q896 531 941 531Q1037 531 1095 444Q1153 358 1153 252Q1153 207 1143 162Q1134 118 1114 75Q1094 32 1056 3Q1019 -25 969 -29Q877 -17 827 49Q777 116 777 213ZM947 479Q912 475 888 415Q864 355 857 298Q850 242 850 199Q850 143 884 95Q919 48 962 48Q993 48 1018 72Q1043 96 1057 131Q1072 167 1079 203Q1087 239 1087 267Q1087 349 1050 410Q1013 471 947 479ZM1637 97L1647 53Q1603 37 1516 17Q1430 -2 1388 -2Q1345 -2 1313 26Q1281 55 1265 99Q1249 144 1241 187Q1234 231 1234 273Q1234 523 1460 523Q1514 523 1555 488Q1596 454 1596 399Q1596 369 1579 346Q1563 323 1539 309Q1516 296 1479 285Q1443 274 1415 269Q1387 264 1348 258Q1309 252 1294 249Q1295 220 1297 198Q1300 176 1307 150Q1315 125 1327 108Q1340 92 1362 81Q1384 70 1414 70Q1450 70 1502 76Q1554 83 1594 90Q1635 97 1637 97ZM1298 311Q1434 350 1521 393Q1514 426 1502 441Q1490 456 1466 456Q1405 456 1355 414Q1306 372 1298 311ZM2269 720L2329 717Q2328 715 2251 394Q2174 73 2146 1Q2136 -1 2126 -1Q2098 -1 2063 6Q2036 86 1981 330Q1919 75 1892 1Q1882 -1 1872 -1Q1844 -1 1809 6Q1794 51 1774 129Q1755 207 1734 302Q1713 397 1697 470Q1682 544 1665 628Q1648 712 1646 720L1703 720Q1743 536 1847 130Q1862 184 1898 318Q1934 452 1946 495Q1932 559 1900 720L1957 720Q1997 536 2101 130Q2255 692 2269 720ZM2773 97L2783 53Q2739 37 2652 17Q2566 -2 2524 -2Q2481 -2 2449 26Q2417 55 2401 99Q2385 144 2377 187Q2370 231 2370 273Q2370 523 2596 523Q2650 523 2691 488Q2732 454 2732 399Q2732 369 2715 346Q2699 323 2675 309Q2652 296 2615 285Q2579 274 2551 269Q2523 264 2484 258Q2445 252 2430 249Q2431 220 2433 198Q2436 176 2443 150Q2451 125 2463 108Q2476 92 2498 81Q2520 70 2550 70Q2586 70 2638 76Q2690 83 2730 90Q2771 97 2773 97ZM2434 311Q2570 350 2657 393Q2650 426 2638 441Q2626 456 2602 456Q2541 456 2491 414Q2442 372 2434 311ZM2891 -19L2835 -30L2823 760Q2851 774 2899 783Q2898 760 2898 711Q2898 603 2906 497Q2954 524 3008 524Q3064 524 3103 497Q3142 471 3161 425Q3180 379 3188 332Q3196 285 3196 230Q3196 170 3177 114Q3159 59 3113 17Q3068 -24 3003 -24Q2947 -24 2892 11Q2891 1 2891 -19ZM2903 399L2900 77Q2906 59 2937 48Q2969 38 3006 38Q3041 38 3064 51Q3088 65 3100 90Q3112 116 3116 144Q3121 172 3121 208Q3121 245 3117 280Q3113 316 3101 358Q3089 401 3062 427Q3035 453 2995 453Q2966 453 2940 438Q2915 424 2903 399ZM3277 6L3280 728Q3502 726 3623 614Q3744 503 3744 288Q3744 219 3708 162Q3672 105 3615 71Q3559 37 3493 18Q3428 0 3364 0Q3324 0 3277 6ZM3352 67L3369 67Q3426 67 3479 80Q3532 94 3577 121Q3622 148 3649 195Q3676 243 3676 305Q3676 389 3625 475Q3575 562 3503 615Q3432 669 3371 669Q3358 669 3346 666Q3346 606 3352 67ZM4228 97L4238 53Q4194 37 4107 17Q4021 -2 3979 -2Q3936 -2 3904 26Q3872 55 3856 99Q3840 144 3832 187Q3825 231 3825 273Q3825 523 4051 523Q4105 523 4146 488Q4187 454 4187 399Q4187 369 4170 346Q4154 323 4130 309Q4107 296 4070 285Q4034 274 4006 269Q3978 264 3939 258Q3900 252 3885 249Q3886 220 3888 198Q3891 176 3898 150Q3906 125 3918 108Q3931 92 3953 81Q3975 70 4005 70Q4041 70 4093 76Q4145 83 4185 90Q4226 97 4228 97ZM3889 311Q4025 350 4112 393Q4105 426 4093 441Q4081 456 4057 456Q3996 456 3946 414Q3897 372 3889 311ZM4550 514L4617 505Q4598 426 4557 264Q4516 103 4493 2Q4454 -5 4425 -5Q4401 -5 4380 -1Q4365 51 4332 163Q4300 276 4277 359Q4255 442 4237 518L4303 513L4433 97Q4449 145 4467 205Q4485 265 4496 307Q4507 350 4525 418Q4543 487 4550 514Z" style="" fill="#ffffff"></path></g></g></g></svg>